<svg id="Capa_1" enable-background="new 0 0 512 512" height="512" viewBox="0 0 512 512" width="512" xmlns="http://www.w3.org/2000/svg" xmlns:xlink="http://www.w3.org/1999/xlink"><linearGradient id="SVGID_1_" gradientUnits="userSpaceOnUse" x1="256" x2="256" y1="512" y2="0"><stop offset="0" stop-color="#ffc2cc"/><stop offset="1" stop-color="#fff2f4"/></linearGradient><linearGradient id="SVGID_2_" gradientUnits="userSpaceOnUse" x1="256" x2="256" y1="407" y2="105"><stop offset="0" stop-color="#ffa68d"/><stop offset="1" stop-color="#fd3a84"/></linearGradient><g><g><circle cx="256" cy="256" fill="url(#SVGID_1_)" r="256"/></g><g><g><path d="m309.4 193.823c-4.911 0-8.9 3.981-8.9 8.883 0 4.901 3.989 8.882 8.9 8.882s8.9-3.981 8.9-8.882-3.989-8.883-8.9-8.883zm-106.8 0c-4.911 0-8.9 3.981-8.9 8.883 0 4.901 3.99 8.882 8.9 8.882s8.9-3.981 8.9-8.882-3.989-8.883-8.9-8.883zm53.4-88.823c-73.06 0-133.5 88.216-133.5 133.235 0 10.816 3.494 19.777 10.386 26.638 21.982 21.872 76.49 17.404 123.114 17.773 59.886.394 103.317 1.92 123.114-17.773 6.892-6.861 10.386-15.822 10.386-26.638 0-45.019-60.44-133.235-133.5-133.235zm-53.4 124.353c-14.723 0-26.7-11.953-26.7-26.647s11.977-26.647 26.7-26.647 26.7 11.953 26.7 26.647-11.977 26.647-26.7 26.647zm53.4 17.765c-4.915 0-8.9-3.977-8.9-8.882 0-4.906 3.985-8.882 8.9-8.882s8.9 3.976 8.9 8.882c0 4.905-3.985 8.882-8.9 8.882zm0-88.824c-4.915 0-8.9-3.977-8.9-8.882 0-4.906 3.985-8.882 8.9-8.882s8.9 3.976 8.9 8.882c0 4.905-3.985 8.882-8.9 8.882zm53.4 71.059c-14.723 0-26.7-11.953-26.7-26.647s11.977-26.647 26.7-26.647 26.7 11.953 26.7 26.647-11.977 26.647-26.7 26.647zm-91.538 71.167c-3.984 23.616-6.362 50.191-6.362 62.068 0 29.466 14.975 44.412 44.5 44.412s44.5-14.946 44.5-44.412c0-11.874-2.376-38.438-6.359-62.047-.127.001-76.175-.02-76.279-.021z" fill="url(#SVGID_2_)"/></g></g></g></svg>