<?xml version="1.0" encoding="iso-8859-1"?>
<!-- Generator: Adobe Illustrator 19.0.0, SVG Export Plug-In . SVG Version: 6.00 Build 0)  -->
<svg version="1.1" id="Capa_1" xmlns="http://www.w3.org/2000/svg" xmlns:xlink="http://www.w3.org/1999/xlink" x="0px" y="0px"
	 viewBox="0 0 512.002 512.002" style="enable-background:new 0 0 512.002 512.002;" xml:space="preserve">
<path style="fill:#874D1B;" d="M77.655,205.987l50.347,67.081v34.133l0,0c0,22.451,5.222,44.587,15.266,64.666l1.801,3.601v128
	h34.133v-76.8l17.067-76.8l0,0c19.226,6.409,39.518,8.977,59.733,7.578l42.189-8.951l43.145-15.693l27.938,9.31l0,0
	c3.584,8.747,8.405,16.93,14.31,24.303l34.552,43.187l-8.533,93.867h34.133l16.119-112.845c0.623-4.369,0.393-8.823-0.674-13.107
	l-7.211-28.843c-5.47-21.879-8.235-44.339-8.235-66.893v-0.179c0-28.279-22.921-51.2-51.2-51.2H204.802l-25.6-25.6l-25.6-25.6
	l-51.2-51.2H68.269l-54.434,54.434c-3.396,3.396-5.299,8.004-5.299,12.8l0,0c0.009,9.993,8.107,18.099,18.099,18.099h33.101
	C66.443,213.334,72.877,210.698,77.655,205.987z"/>
<path style="fill:#6B3713;" d="M102.402,128.001h7.322c22.63,0,44.339,8.994,60.339,24.994l17.673,17.673l25.6,25.6l34.133,34.133
	h-42.667L102.402,128.001z"/>
<path style="fill:#EA3836;" d="M338.17,222.218l-73.634,8.183l-17.067,76.8l13.764,75.708c2.15,12.023,13.636,20.019,25.66,17.869
	c11.324-2.022,19.2-12.39,18.116-23.842l-6.34-69.734l31.087-55.953C334.697,242.322,337.572,232.406,338.17,222.218z"/>
<g>
	<path style="fill:#6B3713;" d="M494.935,187.734c-14.14,0-25.6,11.46-25.6,25.6c0,18.85-15.283,34.133-34.133,34.133h-4.582
		c8.448,9.361,13.124,21.521,13.116,34.133h8.533c28.279,0,51.2-22.921,51.2-51.2v-42.667H494.935z"/>
	<path style="fill:#6B3713;" d="M68.269,128.001c0-15.292,9.779-28.86,24.286-33.698l1.314-0.435l8.533,34.133H68.269z"/>
</g>
<path style="fill:#FFD33F;" d="M150.496,181.761c-9.071,3.84-13.303,14.31-9.463,23.381c3.738,8.832,13.798,13.124,22.758,9.711
	l16.896-6.332l-13.559-33.894L150.496,181.761z"/>
<g>
	<path style="fill:#874D1B;" d="M248.655,357.599c2.449-0.06,4.907,0,7.347-0.154l0.58-0.128l-2.458-13.491
		C252.282,348.349,250.464,352.94,248.655,357.599z"/>
	<path style="fill:#874D1B;" d="M459.181,377.516l-7.211-28.843c-5.47-21.879-8.235-44.339-8.235-66.893v-0.179
		c0-28.279-22.921-51.2-51.2-51.2h-55.39c-1.306,7.305-3.806,14.353-7.39,20.847l-31.087,55.953l3.618,39.799l39.049-14.199
		l27.938,9.31c3.584,8.747,8.405,16.93,14.31,24.303l34.552,43.187l-8.533,93.867h34.133l16.119-112.845
		C460.478,386.254,460.247,381.799,459.181,377.516z"/>
</g>
<path style="fill:#D62121;" d="M318.927,224.359c-1.399,1.988-2.799,3.994-4.19,6.042c-24.124,35.575-44.433,73.591-60.587,113.425
	l2.458,13.491l4.651,25.6c2.15,12.023,13.636,20.019,25.66,17.869c11.324-2.022,19.2-12.39,18.116-23.842l-2.722-29.952
	l-3.644-39.791l31.087-55.953c3.584-6.494,6.084-13.542,7.39-20.847c0.503-2.705,0.845-5.436,1.024-8.183L318.927,224.359z"/>
<g>
	<polygon style="fill:#91CECE;" points="182.308,207.907 179.202,204.801 179.202,204.801 180.687,208.513 	"/>
	<path style="fill:#91CECE;" d="M337.41,206.875l-13.141-78.874l-3.814-7.629c-2.884-5.786-8.798-9.438-15.266-9.438h-32.119
		l-76.8,51.2l-29.141,12.484l13.559,33.894l32.649-12.245l42.667-25.6l8.533,59.733l73.634-8.183
		C338.494,217.089,338.246,211.943,337.41,206.875z"/>
</g>
<path style="fill:#83B2B7;" d="M338.17,222.218c0.324-5.129,0.077-10.283-0.759-15.36l-0.998-6.033
	c-5.794,7.356-11.622,15.198-17.485,23.518L338.17,222.218z"/>
<path style="fill:#6B3713;" d="M341.335,230.401h-4.19c-1.306,7.305-3.806,14.353-7.39,20.847l-31.087,55.953l3.618,39.799
	l30.225-10.991c8.533-54.801,22.485-87.185,37.897-105.609L341.335,230.401z"/>
<path style="fill:#FFD33F;" d="M247.469,46.934c-0.051,21.154,17.05,38.34,38.195,38.4c14.575,0.034,27.904-8.201,34.398-21.257
	c-19.294-19.174-45.389-29.935-72.593-29.943V46.934z"/>
<path style="fill:#383856;" d="M285.869,8.534h-38.4v25.6c27.204,0.009,53.299,10.769,72.593,29.943
	c2.731-5.308,4.173-11.179,4.207-17.143C324.269,25.729,307.083,8.534,285.869,8.534z"/>
<path style="fill:#FFAC3E;" d="M277.335,76.801c-8.09-0.017-15.957-2.603-22.477-7.39c12.271,17.118,36.105,21.052,53.222,8.781
	c5.094-3.652,9.207-8.499,11.981-14.114c-2.833-2.782-5.82-5.393-8.951-7.825C304.548,68.848,291.543,76.758,277.335,76.801z"/>
<path style="fill:#202033;" d="M308.346,15.924c8.542,11.52,9.771,26.889,3.183,39.62c-0.128,0.247-0.29,0.469-0.418,0.708
	c3.132,2.432,6.118,5.043,8.951,7.825C328.698,47.353,323.697,26.821,308.346,15.924z"/>
<path d="M503.469,179.201h-8.533c-18.85,0-34.133,15.283-34.133,34.133c0,14.14-11.46,25.6-25.6,25.6v0.947
	c-11.204-11.52-26.59-18.014-42.667-18.014h-45.833c0.307-5.478,0.026-10.974-0.853-16.393l-13.141-78.874
	c-0.137-0.836-0.401-1.655-0.777-2.415l-3.823-7.68c-4.326-8.687-13.218-14.157-22.921-14.106h-32.119
	c-1.681,0-3.337,0.503-4.736,1.434l-76.151,50.765l-5.914,2.56l-10.172-10.172c-17.562-17.673-41.463-27.58-66.381-27.52h-0.657
	l-6.912-27.665c-1.143-4.574-5.777-7.356-10.342-6.212c-0.213,0.051-0.435,0.119-0.649,0.188l-1.306,0.444
	c-16.623,5.555-28.348,20.471-29.807,37.939L7.802,176.402c-10.402,10.402-10.402,27.264,0,37.666
	c4.992,4.992,11.767,7.799,18.833,7.799h33.101c5.623-0.034,11.145-1.485,16.06-4.198l43.674,58.24v31.292
	c0.043,23.774,5.589,47.215,16.213,68.48l0.896,1.801v125.986c0,4.71,3.823,8.533,8.533,8.533h34.133
	c4.71,0,8.533-3.823,8.533-8.533v-75.87l14.865-66.901c15.292,4.096,31.104,5.931,46.933,5.461l3.319,18.278
	c2.987,16.657,18.918,27.742,35.575,24.747c15.667-2.816,26.581-17.161,25.097-33.007l-2.125-23.398l7.509-2.731
	c14.217-5.103,29.705-5.427,44.117-0.913c3.695,8.081,8.363,15.667,13.909,22.605l32.427,40.516l-8.337,90.436
	c-0.427,4.693,3.029,8.849,7.723,9.276c0.273,0.026,0.538,0.034,0.811,0.034h34.133c4.241,0,7.842-3.123,8.448-7.322l16.128-112.87
	c0.785-5.453,0.495-11.017-0.853-16.358l-7.202-28.851c-4.574-18.492-7.168-37.419-7.731-56.465
	c32.879-0.171,59.443-26.854,59.477-59.733v-42.667C512.002,183.024,508.188,179.201,503.469,179.201z M169.38,164.379
	l-12.971,5.564l-31.991-31.991c15.019,2.893,28.817,10.24,39.612,21.077L169.38,164.379z M88.109,106.036l3.362,13.431H78.364
	C80.113,114.075,83.518,109.373,88.109,106.036z M198.965,341.778c-2.287-0.777-4.804-0.529-6.903,0.666
	c-2.108,1.186-3.601,3.217-4.13,5.572l-17.067,76.8c-0.128,0.606-0.196,1.229-0.196,1.852v68.267h-17.067V375.468
	c0-1.323-0.307-2.628-0.896-3.814l-1.801-3.601c-9.421-18.901-14.345-39.731-14.37-60.851v-34.133c0-1.843-0.597-3.644-1.707-5.12
	l-46.404-61.867c3.541-5.461,5.436-11.836,5.444-18.347H76.802c0,9.429-7.637,17.067-17.067,17.067H26.635
	c-5.282,0-9.566-4.275-9.566-9.557c0-2.543,1.007-4.975,2.807-6.775l51.925-51.934h27.068l41.6,41.6
	c-11.085,9.387-12.459,25.984-3.072,37.069c2.193,2.586,4.864,4.727,7.868,6.298c6.656,3.482,14.481,3.968,21.521,1.34l13.372-5.018
	l18.611,18.611c1.604,1.604,3.772,2.5,6.033,2.5h49.092l-14.763,66.415c-0.247,1.126-0.265,2.287-0.051,3.413l7.339,40.397
	C230.3,349.347,214.266,346.855,198.965,341.778z M251.002,221.868l-23.893-23.893l22.272-13.363l5.316,37.257H251.002z
	 M211.194,206.192l15.676,15.676h-18.534l-10.624-10.624L211.194,206.192z M293.011,388.106c-2.56,2.842-6.204,4.446-10.027,4.429
	c-6.554,0-12.169-4.702-13.329-11.153l0,0l-13.483-74.01l16.7-75.093c0.213-1.007,0.256-2.039,0.111-3.063l-8.533-59.733
	c-0.666-4.668-4.992-7.902-9.66-7.236c-1.126,0.162-2.21,0.546-3.183,1.135l-42.001,25.207l-48.819,18.304
	c-2.475,0.956-5.248,0.785-7.586-0.469c-4.548-2.381-6.306-8.004-3.925-12.553c0.99-1.903,2.611-3.396,4.582-4.241l45.773-19.627
	c0.478-0.205,0.939-0.452,1.374-0.742l74.624-49.792h29.534c3.234-0.009,6.195,1.818,7.629,4.719l3.243,6.485l12.937,77.653
	c2.202,13.329-0.162,27.008-6.699,38.827l-31.087,55.953c-0.836,1.493-1.195,3.209-1.041,4.915l6.34,69.751
	C296.843,381.552,295.588,385.307,293.011,388.106z M451.407,389.411l-15.07,105.523h-17.348l7.68-84.557
	c0.205-2.193-0.452-4.386-1.835-6.11l-34.551-43.196c-19.277-23.996-25.02-56.149-15.223-85.333l-16.213-5.393
	c-6.391,19.268-7.194,39.962-2.295,59.665c-14.609-2.441-29.594-1.075-43.52,3.977l-3.285,1.186l-2.381-26.155l29.815-53.649
	c2.867-5.197,5.12-10.718,6.716-16.435h48.64c23.612,0.051,42.718,19.226,42.667,42.837v0.009
	c0.017,23.245,2.884,46.396,8.533,68.941l7.211,28.851C451.748,382.789,451.902,386.134,451.407,389.411L451.407,389.411z
	 M494.935,230.401c-0.026,23.552-19.115,42.641-42.667,42.667h-0.683c-0.922-6.46-2.901-12.723-5.871-18.534
	c18.859-4.796,32.085-21.743,32.154-41.199c0-9.429,7.637-17.067,17.067-17.067V230.401z"/>
<path d="M332.802,46.934c-0.034-25.907-21.026-46.899-46.933-46.933h-38.4c-4.71,0-8.533,3.823-8.533,8.533v38.4
	c0,25.924,21.009,46.933,46.933,46.933S332.802,72.859,332.802,46.934z M285.869,17.068c16.495,0,29.867,13.372,29.867,29.867
	c0,0.41-0.102,0.785-0.119,1.186c-16.7-14.106-37.751-22.025-59.614-22.417v-8.636H285.869z M256.002,46.934V42.77
	c19.968,0.444,39.006,8.516,53.214,22.562c-10.095,12.962-28.791,15.283-41.745,5.188C260.201,64.854,255.968,56.15,256.002,46.934z
	"/>
<g>
</g>
<g>
</g>
<g>
</g>
<g>
</g>
<g>
</g>
<g>
</g>
<g>
</g>
<g>
</g>
<g>
</g>
<g>
</g>
<g>
</g>
<g>
</g>
<g>
</g>
<g>
</g>
<g>
</g>
</svg>
